# xmcd
#
# Track frame offsets:
#	150
#	14420
#	32677
#	41607
#	46495
#	64010
#	77270
#	81755
#	94435
#	108420
#	117525
#	126542
#	140985
#	151265
#
# Disc length: 2187 seconds
#
# Revision: 0
# Processed by: cddbd v1.5.1PL0 Copyright (c) Steve Scherf et al.
# Submitted via: audiograbber 1.81.02
#
DISCID=c008890e
DTITLE=Tim Thomas und Olaf Franke - Mit Freddy durch die Bibel 7 - Ein Hammer f
DTITLE=ür Markus (www.gerth.de)
DYEAR=2005
DGENRE=Musical
TTITLE0=Wo ist der Feind
TTITLE1=Wo ist der Feind - reprise
TTITLE2=Das sollen alle erfahren
TTITLE3=Mama-Mambo
TTITLE4=Markus darf nicht
TTITLE5=Die Menschen reagieren auf die Botschaft
TTITLE6=Das ist ja ein Hammer
TTITLE7=Paulus und Barnabas streiten sich
TTITLE8=Der Mann, der alles kann
TTITLE9=Paulus unterwegs
TTITLE10=Paulus verteidigt sich
TTITLE11=Paulus und Markus versöhnen sich
TTITLE12=Das ist ja ein Hammer - reprise
TTITLE13=Gospel Mambo
EXTD=
EXTT0=
EXTT1=
EXTT2=
EXTT3=
EXTT4=
EXTT5=
EXTT6=
EXTT7=
EXTT8=
EXTT9=
EXTT10=
EXTT11=
EXTT12=
EXTT13=
PLAYORDER=
